<mxfile host="app.diagrams.net" agent="Mozilla/5.0 (Macintosh; Intel Mac OS X 10_15_7) AppleWebKit/605.1.15 (KHTML, like Gecko) Version/26.0.1 Safari/605.1.15" version="28.2.5">
  <diagram name="Page-1" id="-mej51jzEHVwVlWibNtY">
    <mxGraphModel dx="1018" dy="606" grid="1" gridSize="10" guides="1" tooltips="1" connect="1" arrows="1" fold="1" page="1" pageScale="1" pageWidth="827" pageHeight="1169" math="0" shadow="0">
      <root>
        <mxCell id="0" />
        <mxCell id="1" parent="0" />
        <mxCell id="B_TgbqkUulZLG7lJ6cpt-13" style="edgeStyle=orthogonalEdgeStyle;rounded=0;orthogonalLoop=1;jettySize=auto;html=1;exitX=1;exitY=0.5;exitDx=0;exitDy=0;entryX=0;entryY=0.5;entryDx=0;entryDy=0;" parent="1" source="B_TgbqkUulZLG7lJ6cpt-8" target="B_TgbqkUulZLG7lJ6cpt-9" edge="1">
          <mxGeometry relative="1" as="geometry" />
        </mxCell>
        <mxCell id="B_TgbqkUulZLG7lJ6cpt-8" value="Start&lt;div&gt;Upload&lt;/div&gt;&lt;div&gt;Resumes&lt;/div&gt;" style="ellipse;whiteSpace=wrap;html=1;aspect=fixed;fillColor=#60a917;fontColor=#ffffff;strokeColor=#2D7600;" parent="1" vertex="1">
          <mxGeometry x="127" y="50" width="80" height="80" as="geometry" />
        </mxCell>
        <mxCell id="B_TgbqkUulZLG7lJ6cpt-14" style="edgeStyle=orthogonalEdgeStyle;rounded=0;orthogonalLoop=1;jettySize=auto;html=1;exitX=1;exitY=0.5;exitDx=0;exitDy=0;entryX=0;entryY=0.5;entryDx=0;entryDy=0;" parent="1" source="B_TgbqkUulZLG7lJ6cpt-9" target="B_TgbqkUulZLG7lJ6cpt-10" edge="1">
          <mxGeometry relative="1" as="geometry" />
        </mxCell>
        <mxCell id="B_TgbqkUulZLG7lJ6cpt-9" value="AI Scores&amp;nbsp;&lt;div&gt;Candidates&lt;/div&gt;" style="rounded=1;whiteSpace=wrap;html=1;fillColor=#1ba1e2;fontColor=#ffffff;strokeColor=#006EAF;" parent="1" vertex="1">
          <mxGeometry x="307" y="60" width="120" height="60" as="geometry" />
        </mxCell>
        <mxCell id="B_TgbqkUulZLG7lJ6cpt-19" style="edgeStyle=orthogonalEdgeStyle;rounded=0;orthogonalLoop=1;jettySize=auto;html=1;exitX=0.1;exitY=1.033;exitDx=0;exitDy=0;curved=1;exitPerimeter=0;" parent="1" source="B_TgbqkUulZLG7lJ6cpt-10" target="B_TgbqkUulZLG7lJ6cpt-15" edge="1">
          <mxGeometry relative="1" as="geometry" />
        </mxCell>
        <mxCell id="B_TgbqkUulZLG7lJ6cpt-10" value="Display Ranked&lt;div&gt;List&lt;/div&gt;" style="rounded=1;whiteSpace=wrap;html=1;fillColor=#1ba1e2;fontColor=#ffffff;strokeColor=#006EAF;" parent="1" vertex="1">
          <mxGeometry x="527" y="60" width="120" height="60" as="geometry" />
        </mxCell>
        <mxCell id="B_TgbqkUulZLG7lJ6cpt-22" style="edgeStyle=orthogonalEdgeStyle;rounded=0;orthogonalLoop=1;jettySize=auto;html=1;exitX=0.5;exitY=1;exitDx=0;exitDy=0;entryX=0.5;entryY=0;entryDx=0;entryDy=0;" parent="1" source="B_TgbqkUulZLG7lJ6cpt-15" target="B_TgbqkUulZLG7lJ6cpt-21" edge="1">
          <mxGeometry relative="1" as="geometry" />
        </mxCell>
        <mxCell id="B_TgbqkUulZLG7lJ6cpt-15" value="User Selects&lt;div&gt;Candidate&lt;/div&gt;" style="rounded=1;whiteSpace=wrap;html=1;fillColor=#60a917;fontColor=#ffffff;strokeColor=#2D7600;" parent="1" vertex="1">
          <mxGeometry x="357" y="200" width="120" height="60" as="geometry" />
        </mxCell>
        <mxCell id="B_TgbqkUulZLG7lJ6cpt-16" value="User uploads&lt;div&gt;batch&lt;/div&gt;" style="text;html=1;align=left;verticalAlign=middle;whiteSpace=wrap;rounded=0;" parent="1" vertex="1">
          <mxGeometry x="127" y="140" width="80" height="30" as="geometry" />
        </mxCell>
        <mxCell id="B_TgbqkUulZLG7lJ6cpt-17" value="NLP + filters analyse resumes" style="text;html=1;align=left;verticalAlign=middle;whiteSpace=wrap;rounded=0;" parent="1" vertex="1">
          <mxGeometry x="307" y="130" width="120" height="30" as="geometry" />
        </mxCell>
        <mxCell id="B_TgbqkUulZLG7lJ6cpt-18" value="User sees:&lt;div&gt;- candidate names + score&lt;/div&gt;&lt;div&gt;- confidence %&lt;/div&gt;&lt;div&gt;- top 3 features used in scoring&lt;/div&gt;" style="text;html=1;align=left;verticalAlign=middle;whiteSpace=wrap;rounded=0;" parent="1" vertex="1">
          <mxGeometry x="570" y="122.5" width="170" height="65" as="geometry" />
        </mxCell>
        <mxCell id="B_TgbqkUulZLG7lJ6cpt-20" value="- View detailed resume + AI score&lt;div&gt;- Explanation of decisions&lt;/div&gt;&lt;div&gt;- Options to override&lt;/div&gt;" style="text;html=1;align=left;verticalAlign=middle;whiteSpace=wrap;rounded=0;" parent="1" vertex="1">
          <mxGeometry x="157" y="200" width="190" height="65" as="geometry" />
        </mxCell>
        <mxCell id="B_TgbqkUulZLG7lJ6cpt-21" value="Low&lt;div&gt;Confidence&lt;/div&gt;" style="rhombus;whiteSpace=wrap;html=1;fillColor=#1ba1e2;fontColor=#ffffff;strokeColor=#006EAF;" parent="1" vertex="1">
          <mxGeometry x="362" y="300" width="110" height="110" as="geometry" />
        </mxCell>
        <mxCell id="wnRsjNSqPU9EKTRQQtbh-3" style="edgeStyle=orthogonalEdgeStyle;rounded=0;orthogonalLoop=1;jettySize=auto;html=1;exitX=0.5;exitY=1;exitDx=0;exitDy=0;entryX=0;entryY=0.5;entryDx=0;entryDy=0;curved=1;" edge="1" parent="1" source="B_TgbqkUulZLG7lJ6cpt-23" target="B_TgbqkUulZLG7lJ6cpt-29">
          <mxGeometry relative="1" as="geometry" />
        </mxCell>
        <mxCell id="B_TgbqkUulZLG7lJ6cpt-23" value="Show warning&lt;div&gt;Low Confidence&lt;/div&gt;" style="rounded=1;whiteSpace=wrap;html=1;fillColor=#a20025;fontColor=#ffffff;strokeColor=#6F0000;" parent="1" vertex="1">
          <mxGeometry x="357" y="460" width="120" height="60" as="geometry" />
        </mxCell>
        <mxCell id="B_TgbqkUulZLG7lJ6cpt-25" value="" style="endArrow=classic;html=1;rounded=0;entryX=0.5;entryY=0;entryDx=0;entryDy=0;" parent="1" target="B_TgbqkUulZLG7lJ6cpt-23" edge="1">
          <mxGeometry relative="1" as="geometry">
            <mxPoint x="417" y="410" as="sourcePoint" />
            <mxPoint x="567" y="420" as="targetPoint" />
          </mxGeometry>
        </mxCell>
        <mxCell id="B_TgbqkUulZLG7lJ6cpt-26" value="&lt;b&gt;YES&lt;/b&gt;" style="edgeLabel;resizable=0;html=1;;align=center;verticalAlign=middle;" parent="B_TgbqkUulZLG7lJ6cpt-25" connectable="0" vertex="1">
          <mxGeometry relative="1" as="geometry" />
        </mxCell>
        <mxCell id="B_TgbqkUulZLG7lJ6cpt-28" value="&lt;span style=&quot;color: rgb(255, 0, 0);&quot;&gt;&quot;Low confidence due to missing data. Proceed with caution.&quot;&lt;/span&gt;&lt;div&gt;&lt;br&gt;&lt;/div&gt;&lt;div&gt;User can choose to:&lt;/div&gt;&lt;div&gt;&lt;ul&gt;&lt;li&gt;Proceed&lt;/li&gt;&lt;li&gt;Remove Candidate&lt;/li&gt;&lt;/ul&gt;&lt;/div&gt;" style="text;html=1;align=left;verticalAlign=middle;whiteSpace=wrap;rounded=0;" parent="1" vertex="1">
          <mxGeometry x="177" y="425" width="190" height="130" as="geometry" />
        </mxCell>
        <mxCell id="B_TgbqkUulZLG7lJ6cpt-39" style="edgeStyle=orthogonalEdgeStyle;rounded=0;orthogonalLoop=1;jettySize=auto;html=1;exitX=1;exitY=0;exitDx=0;exitDy=0;entryX=0.25;entryY=1;entryDx=0;entryDy=0;curved=1;" parent="1" source="B_TgbqkUulZLG7lJ6cpt-29" target="B_TgbqkUulZLG7lJ6cpt-10" edge="1">
          <mxGeometry relative="1" as="geometry">
            <Array as="points">
              <mxPoint x="557" y="560" />
            </Array>
            <mxPoint x="650" y="120" as="targetPoint" />
          </mxGeometry>
        </mxCell>
        <mxCell id="B_TgbqkUulZLG7lJ6cpt-29" value="User&lt;div&gt;Decision&lt;/div&gt;" style="rhombus;whiteSpace=wrap;html=1;fillColor=#60a917;fontColor=#ffffff;strokeColor=#2D7600;" parent="1" vertex="1">
          <mxGeometry x="490" y="540" width="80" height="80" as="geometry" />
        </mxCell>
        <mxCell id="B_TgbqkUulZLG7lJ6cpt-43" style="edgeStyle=orthogonalEdgeStyle;rounded=0;orthogonalLoop=1;jettySize=auto;html=1;exitX=0.5;exitY=1;exitDx=0;exitDy=0;entryX=0.5;entryY=0;entryDx=0;entryDy=0;" parent="1" source="B_TgbqkUulZLG7lJ6cpt-32" target="B_TgbqkUulZLG7lJ6cpt-40" edge="1">
          <mxGeometry relative="1" as="geometry" />
        </mxCell>
        <mxCell id="B_TgbqkUulZLG7lJ6cpt-32" value="Fairness Alert&lt;div&gt;Detected&lt;/div&gt;" style="rounded=1;whiteSpace=wrap;html=1;fillColor=#a20025;fontColor=#ffffff;strokeColor=#6F0000;" parent="1" vertex="1">
          <mxGeometry x="470" y="660" width="120" height="60" as="geometry" />
        </mxCell>
        <mxCell id="B_TgbqkUulZLG7lJ6cpt-33" value="" style="endArrow=classic;html=1;rounded=0;exitX=0.5;exitY=1;exitDx=0;exitDy=0;entryX=0.5;entryY=0;entryDx=0;entryDy=0;" parent="1" source="B_TgbqkUulZLG7lJ6cpt-29" target="B_TgbqkUulZLG7lJ6cpt-32" edge="1">
          <mxGeometry relative="1" as="geometry">
            <mxPoint x="580" y="630" as="sourcePoint" />
            <mxPoint x="680" y="630" as="targetPoint" />
          </mxGeometry>
        </mxCell>
        <mxCell id="B_TgbqkUulZLG7lJ6cpt-34" value="&lt;b&gt;PROCEED&lt;/b&gt;" style="edgeLabel;resizable=0;html=1;;align=center;verticalAlign=middle;" parent="B_TgbqkUulZLG7lJ6cpt-33" connectable="0" vertex="1">
          <mxGeometry relative="1" as="geometry" />
        </mxCell>
        <mxCell id="B_TgbqkUulZLG7lJ6cpt-35" value="" style="endArrow=classic;html=1;rounded=0;exitX=1;exitY=1;exitDx=0;exitDy=0;entryX=0.75;entryY=0;entryDx=0;entryDy=0;curved=1;" parent="1" source="B_TgbqkUulZLG7lJ6cpt-21" target="B_TgbqkUulZLG7lJ6cpt-32" edge="1">
          <mxGeometry relative="1" as="geometry">
            <mxPoint x="477.5" y="382.5" as="sourcePoint" />
            <mxPoint x="640" y="634.5" as="targetPoint" />
            <Array as="points">
              <mxPoint x="680" y="410" />
              <mxPoint x="620" y="620" />
            </Array>
          </mxGeometry>
        </mxCell>
        <mxCell id="B_TgbqkUulZLG7lJ6cpt-36" value="&lt;b&gt;NO&lt;/b&gt;" style="edgeLabel;resizable=0;html=1;;align=center;verticalAlign=middle;" parent="B_TgbqkUulZLG7lJ6cpt-35" connectable="0" vertex="1">
          <mxGeometry relative="1" as="geometry">
            <mxPoint x="-26" y="27" as="offset" />
          </mxGeometry>
        </mxCell>
        <mxCell id="B_TgbqkUulZLG7lJ6cpt-37" value="&lt;font color=&quot;#ff0000&quot;&gt;&lt;span style=&quot;caret-color: rgb(255, 0, 0);&quot;&gt;&quot;Gender imbalance in top 10%&quot;&lt;/span&gt;&lt;/font&gt;&lt;div&gt;&lt;font color=&quot;#ff0000&quot;&gt;&lt;span style=&quot;caret-color: rgb(255, 0, 0);&quot;&gt;&lt;br&gt;&lt;/span&gt;&lt;/font&gt;&lt;/div&gt;&lt;div&gt;&lt;font&gt;&lt;span style=&quot;caret-color: rgb(255, 0, 0); color: rgb(0, 0, 0);&quot;&gt;User options:&lt;/span&gt;&lt;/font&gt;&lt;/div&gt;&lt;div&gt;&lt;ul&gt;&lt;li&gt;&lt;font color=&quot;#000000&quot;&gt;&lt;span style=&quot;caret-color: rgb(255, 0, 0);&quot;&gt;View fairness report&lt;/span&gt;&lt;/font&gt;&lt;/li&gt;&lt;li&gt;&lt;font color=&quot;#000000&quot;&gt;&lt;span style=&quot;caret-color: rgb(255, 0, 0);&quot;&gt;Adjust ranking&lt;/span&gt;&lt;/font&gt;&lt;/li&gt;&lt;/ul&gt;&lt;/div&gt;" style="text;html=1;align=left;verticalAlign=middle;whiteSpace=wrap;rounded=0;" parent="1" vertex="1">
          <mxGeometry x="290" y="640" width="190" height="100" as="geometry" />
        </mxCell>
        <mxCell id="B_TgbqkUulZLG7lJ6cpt-44" style="edgeStyle=orthogonalEdgeStyle;rounded=0;orthogonalLoop=1;jettySize=auto;html=1;exitX=0.5;exitY=1;exitDx=0;exitDy=0;entryX=0.5;entryY=0;entryDx=0;entryDy=0;" parent="1" source="B_TgbqkUulZLG7lJ6cpt-40" target="B_TgbqkUulZLG7lJ6cpt-41" edge="1">
          <mxGeometry relative="1" as="geometry" />
        </mxCell>
        <mxCell id="B_TgbqkUulZLG7lJ6cpt-40" value="Export&lt;div&gt;Shortlist&lt;/div&gt;" style="rounded=1;whiteSpace=wrap;html=1;fillColor=#1ba1e2;fontColor=#ffffff;strokeColor=#006EAF;" parent="1" vertex="1">
          <mxGeometry x="470" y="760" width="120" height="60" as="geometry" />
        </mxCell>
        <mxCell id="B_TgbqkUulZLG7lJ6cpt-41" value="END" style="ellipse;whiteSpace=wrap;html=1;aspect=fixed;fillColor=#6a00ff;fontColor=#ffffff;strokeColor=#3700CC;" parent="1" vertex="1">
          <mxGeometry x="490" y="860" width="80" height="80" as="geometry" />
        </mxCell>
      </root>
    </mxGraphModel>
  </diagram>
</mxfile>
